<?xml version="1.0" ?><svg id="Layer_1" style="enable-background:new 0 0 64 64;" version="1.1" viewBox="0 0 64 64" xml:space="preserve" xmlns="http://www.w3.org/2000/svg" xmlns:xlink="http://www.w3.org/1999/xlink"><g><path d="M57.75128,24.89606l-8.83209-9.73999H17.1792c-13.11361,15.20461-6.80672,7.89207-8.59149,9.96143   c0,0,23.57574,27.02869,24.64148,28.25854L57.75128,24.89606z M48.45917,17.65607c0.08923,0.1004,5.87817,6.6142,5.51001,6.19995   H42.88916L48.45917,17.65607z M53.99921,25.85602l-18.53003,21.81l6.26001-21.81H53.99921z M32.99921,17.65607l5.50995,6.19995   H27.41919L32.99921,17.65607z M17.6192,17.65607l5.51996,6.19995c-0.37942,0-3.70742,0-3.60474,0h-7.48523L17.6192,17.65607z    M12.01917,25.85602c0.10694,0,12.88162,0,12.59003,0l6.33002,21.83002L12.01917,25.85602z"/><path d="M63.34666,44.3916l-2.19115,0.78607C63.01459,41.05865,63.99951,36.55426,63.99951,32c0-17.64453-14.35498-32-32-32   c-5.40285,0-10.74316,1.37109-15.44287,3.96387l0.96582,1.75195C21.92773,3.28516,26.93359,2,31.99951,2   c16.54199,0,30,13.45801,30,30c0,4.29565-0.93311,8.5451-2.69635,12.42474l-0.83783-2.33685l-1.88281,0.67578l1.96387,5.47559   l5.47607-1.96484L63.34666,44.3916z"/><path d="M31.99951,62c-16.54199,0-30-13.45801-30-30c0-4.28796,0.93457-8.53613,2.7005-12.42267l0.83417,2.32599l1.88281-0.67578   l-1.96387-5.47363l-5.47559,1.96289l0.6748,1.88281l2.20154-0.78906C0.98816,22.94031-0.00049,27.4491-0.00049,32   c0,17.64453,14.35498,32,32,32c5.40771,0,10.75195-1.375,15.4541-3.97559l-0.96777-1.75C42.07861,60.71191,37.06934,62,31.99951,62   z"/></g></svg>